<?xml version="1.0" standalone="no"?>
<!DOCTYPE svg PUBLIC "-//W3C//DTD SVG 20010904//EN"
 "http://www.w3.org/TR/2001/REC-SVG-20010904/DTD/svg10.dtd">
<svg version="1.0" xmlns="http://www.w3.org/2000/svg"
 width="57.000000pt" height="63.000000pt" viewBox="0 0 57.000000 63.000000"
 preserveAspectRatio="xMidYMid meet">
<metadata>
Created by potrace 1.16, written by Peter Selinger 2001-2019
</metadata>
<g transform="translate(0.000000,63.000000) scale(0.100000,-0.100000)"
fill="#000000" stroke="none">
<path d="M115 560 c-17 -5 -41 -19 -54 -31 -43 -40 -51 -78 -51 -231 1 -244
24 -268 270 -268 246 0 269 24 270 269 0 124 -3 151 -20 186 -34 70 -62 80
-235 82 -82 1 -164 -2 -180 -7z m335 -70 c29 -16 40 -66 40 -190 0 -199 -11
-210 -210 -210 -198 0 -210 12 -210 204 0 121 11 180 38 195 22 13 318 14 342
1z"/>
<path d="M193 439 c-115 -73 -98 -243 29 -294 87 -34 179 8 214 100 27 72 -2
154 -68 195 -45 27 -132 27 -175 -1z m137 -44 c40 -21 60 -53 60 -98 0 -56
-52 -107 -108 -107 -110 0 -151 144 -58 201 37 23 67 24 106 4z"/>
</g>
</svg>
